<svg xmlns="http://www.w3.org/2000/svg" data-name="Layer 1" viewBox="0 0 64 64"><circle cx="32" cy="33" r="26" fill="#ffeb3b"/><path fill="#01579b" d="M32,60A27,27,0,1,1,59,33,27,27,0,0,1,32,60ZM32,8A25,25,0,1,0,57,33,25,25,0,0,0,32,8Z"/><path fill="#01579b" d="M32 42a34.51 34.51 0 0 1-17.51-4.76 1 1 0 0 1 1-1.72 32.55 32.55 0 0 0 33 0 1 1 0 0 1 1 1.72A34.51 34.51 0 0 1 32 42zM25 30a1 1 0 0 1-1-1 3 3 0 0 0-6 0 1 1 0 0 1-2 0 5 5 0 0 1 10 0A1 1 0 0 1 25 30zM47 30a1 1 0 0 1-1-1 3 3 0 0 0-6 0 1 1 0 0 1-2 0 5 5 0 0 1 10 0A1 1 0 0 1 47 30z"/><path fill="#03a9f4" d="M32,12a133.79,133.79,0,0,1-16.39-.89C9.29,10.29,8,9.27,8,8s1.29-2.29,7.61-3.11A133.79,133.79,0,0,1,32,4a133.79,133.79,0,0,1,16.39.89C54.71,5.71,56,6.73,56,8s-1.29,2.29-7.61,3.11A133.79,133.79,0,0,1,32,12ZM10.43,8c2.16.92,9.95,2,21.57,2S51.41,8.92,53.57,8C51.41,7.08,43.63,6,32,6S12.59,7.08,10.43,8Zm43.67.32h0Z"/></svg>