<svg xmlns="http://www.w3.org/2000/svg" data-name="Layer 1" viewBox="0 0 64 64"><path fill="#fbc02d" d="M60,32A28,28,0,0,1,13.42,52.93,33.22,33.22,0,0,0,29.5,57C45.92,57,59.34,45.46,60,31.07Q60,31.54,60,32Z"/><path fill="#ffeb3b" d="M60,31.07C59.34,45.46,45.92,57,29.5,57a33.22,33.22,0,0,1-16.08-4.07A28,28,0,1,1,60,31.07Z"/><path fill="#f44336" d="M40,48.87a16,16,0,0,1-16,0A4.08,4.08,0,0,1,27.61,45a4,4,0,0,1,3.62,1.62,1,1,0,0,0,1.54,0A4,4,0,0,1,36.39,45,4.08,4.08,0,0,1,40,48.87Z"/><path fill="#5d4037" d="M47.49,39a16,16,0,0,1-7.22,9.71,2.69,2.69,0,0,1-.29.16A4.08,4.08,0,0,0,36.39,45a4,4,0,0,0-3.62,1.62,1,1,0,0,1-1.54,0A4,4,0,0,0,27.61,45,4.08,4.08,0,0,0,24,48.87a2.69,2.69,0,0,1-.29-.16A16,16,0,0,1,16.51,39Z"/><path fill="#fff" d="M48,35a16,16,0,0,1-.51,4h-31A16,16,0,0,1,16,35Z"/><polygon fill="#fff" points="21.5 14.41 23.32 20 29.19 20 24.44 23.45 26.25 29.05 21.5 25.59 16.75 29.05 18.56 23.45 13.81 20 19.68 20 21.5 14.41"/><polygon fill="#fff" points="42.5 14.41 44.32 20 50.19 20 45.44 23.45 47.26 29.05 42.5 25.59 37.74 29.05 39.56 23.45 34.81 20 40.68 20 42.5 14.41"/></svg>