<svg xmlns="http://www.w3.org/2000/svg" id="Layer_1" enable-background="new 0 0 20 20" viewBox="0 0 20 20"><linearGradient id="XMLID_25_" x1="3" x2="17" y1="11" y2="11" gradientUnits="userSpaceOnUse"><stop offset="0" stop-color="#ffc80b"/><stop offset="1" stop-color="#e89318"/></linearGradient><path id="XMLID_326_" fill="url(#XMLID_25_)" d="M10,4c-3.9,0-7,3.1-7,7c0,3.9,3.1,7,7,7c3.9,0,7-3.1,7-7C17,7.1,13.9,4,10,4z M6,9   c0-0.6,0.4-1,1-1s1,0.4,1,1c0,0.6-0.4,1-1,1S6,9.6,6,9z M13.4,14c-0.9,1-2.1,1.5-3.4,1.5S7.5,14.9,6.6,14c-0.2-0.2-0.2-0.5,0-0.7   c0.2-0.2,0.5-0.2,0.7,0C8,14.1,9,14.5,10,14.5c1,0,2-0.4,2.6-1.2c0.2-0.2,0.5-0.2,0.7,0C13.5,13.5,13.5,13.8,13.4,14z M13,10   c-0.6,0-1-0.4-1-1c0-0.6,0.4-1,1-1s1,0.4,1,1C14,9.6,13.5,10,13,10z"/><linearGradient id="XMLID_27_" x1="5.979" x2="13.979" y1="11.761" y2="11.761" gradientUnits="userSpaceOnUse"><stop offset="0" stop-color="#708afb"/><stop offset="1" stop-color="#426de8"/></linearGradient><path id="XMLID_322_" fill="url(#XMLID_27_)" d="M6,9c0-0.6,0.4-1,1-1s1,0.4,1,1c0,0.6-0.4,1-1,1S6,9.6,6,9z M13.4,14c-0.9,1-2.1,1.5-3.4,1.5   S7.5,14.9,6.6,14c-0.2-0.2-0.2-0.5,0-0.7c0.2-0.2,0.5-0.2,0.7,0C8,14.1,9,14.5,10,14.5c1,0,2-0.4,2.6-1.2c0.2-0.2,0.5-0.2,0.7,0   C13.5,13.5,13.5,13.8,13.4,14z M13,10c-0.6,0-1-0.4-1-1c0-0.6,0.4-1,1-1s1,0.4,1,1C14,9.6,13.5,10,13,10z"/></svg>