<svg xmlns="http://www.w3.org/2000/svg" enable-background="new 0 0 512 512" viewBox="0 0 512 512"><circle cx="255.5" cy="256.5" r="256.5" fill="#ecb13a"/><circle cx="249.7" cy="244.5" r="243" fill="#ffde4f"/><path fill="#645033" d="M393.9,245.4c12.4-0.1,22.3,10.4,21.2,22.8c-8.6,94.1-75.5,167.6-157.5,168.5s-150.4-71.2-161-165.1
		c-1.4-12.3,8.3-23.1,20.7-23.2L393.9,245.4z"/><circle cx="145.9" cy="164.2" r="34.5" fill="#645033"/><circle cx="368.2" cy="164.6" r="34.5" fill="#645033"/><path fill="#fff" d="M255.7,269l-141.5,1.5c1.7,17.1,6.3,33.6,13.5,48.6l1.5,3.1l127.1-1.4l127.1-1.4l1.4-3.1
		c6.8-15.1,11.1-31.8,12.4-48.9L255.7,269z"/><path fill="#ef4f43" d="M325.2,375.5c-42.5-28.9-94.7-28.3-136.6,1.5l-10.9,7.8l11.1,7.5c42.5,28.9,94.7,28.3,136.6-1.5l10.9-7.8
		L325.2,375.5z"/></svg>