<?xml version="1.0" encoding="UTF-8" standalone="no"?><svg xmlns="http://www.w3.org/2000/svg" xmlns:xlink="http://www.w3.org/1999/xlink" width="48px" height="34px" viewBox="0 0 48 34" version="1.1"><title>Youtube-color</title><g id="Icons" stroke="none" stroke-width="1" fill="none" fill-rule="evenodd"><g id="Color-" transform="translate(-200.000000, -368.000000)" fill="#CE1312"><path d="M219.044 391.27l-.002-13.582 12.97 6.814-12.968 6.768zm28.476-15.936s-.47-3.33-1.908-4.798c-1.826-1.926-3.871-1.935-4.809-2.047-6.717-.489-16.792-.489-16.792-.489h-.022s-10.075 0-16.792.49c-.939.111-2.983.12-4.81 2.046-1.439 1.467-1.907 4.798-1.907 4.798s-.48 3.913-.48 7.824v3.668c0 3.912.48 7.823.48 7.823s.468 3.331 1.907 4.798c1.827 1.926 4.225 1.866 5.293 2.067 3.84.371 16.32.486 16.32.486s10.086-.015 16.803-.505c.938-.113 2.983-.122 4.809-2.048 1.439-1.467 1.908-4.798 1.908-4.798s.48-3.91.48-7.823v-3.668c0-3.911-.48-7.824-.48-7.824z" id="Youtube"/></g></g><metadata><rdf:RDF xmlns:rdf="http://www.w3.org/1999/02/22-rdf-syntax-ns#" xmlns:rdfs="http://www.w3.org/2000/01/rdf-schema#" xmlns:dc="http://purl.org/dc/elements/1.1/"><rdf:Description about="https://iconscout.com/legal#licenses" dc:title="youtube,color" dc:description="youtube,color" dc:publisher="Iconscout" dc:date="2017-09-14" dc:format="image/svg+xml" dc:language="en"><dc:creator><rdf:Bag><rdf:li>Alexis Doreau</rdf:li></rdf:Bag></dc:creator></rdf:Description></rdf:RDF></metadata></svg>